# xmcd CD database file
#
# Track frame offsets:
#	150
#	23282
#	46640
#	70226
#	103457
#	134017
#	154639
#	171995
#	201064
#
# Disc length: 3009 seconds
#
# Revision: 0
# Processed by: cddbd v1.5.1PL0 Copyright (c) Steve Scherf et al.
# Submitted via: CDex 1.51
#
DISCID=740bbf09
DTITLE=PING-Music Label - snapshot
DYEAR=1900
DGENRE=エレクトロニック (一般)
TTITLE0=Mocha Float - Aym
TTITLE1=Platonic Love - BMK
TTITLE2=Maxim - STC
TTITLE3=Rhy-On - 908
TTITLE4=silverLight - Nacky
TTITLE5=Hex - 908
TTITLE6=Dt /Stc
TTITLE7=Escape From China - BMK
TTITLE8=Genomi Icecream - Aym
EXTD=
EXTT0=
EXTT1=
EXTT2=
EXTT3=
EXTT4=
EXTT5=
EXTT6=
EXTT7=
EXTT8=
PLAYORDER=
